<svg id="Layer_1" enable-background="new 0 0 512 512" height="512" viewBox="0 0 512 512" width="512" xmlns="http://www.w3.org/2000/svg"><g><path d="m496 112h-480c-8.836 0-16 7.164-16 16v16c0 68.38 26.628 132.667 74.98 181.02s112.64 74.98 181.02 74.98 132.667-26.628 181.02-74.98 74.98-112.64 74.98-181.02v-16c0-8.836-7.164-16-16-16zm-186.912 61.627c6.248-6.249 16.379-6.249 22.627 0l5.657 5.657c6.249 6.248 6.249 16.379 0 22.627-3.124 3.125-7.219 4.687-11.313 4.687s-8.189-1.562-11.313-4.687l-5.657-5.657c-6.249-6.248-6.249-16.379-.001-22.627zm-69.088 18.373c0-8.836 7.164-16 16-16s16 7.164 16 16v8c0 8.836-7.164 16-16 16s-16-7.164-16-16zm-64.912-12.715 5.657-5.657c6.248-6.249 16.379-6.249 22.627 0 6.249 6.248 6.249 16.379 0 22.627l-5.657 5.657c-3.124 3.125-7.219 4.687-11.313 4.687s-8.189-1.562-11.313-4.687c-6.249-6.248-6.249-16.379-.001-22.627zm80.912 188.715c-121.8 0-221.207-97.716-223.942-218.871-.063-2.81 2.194-5.129 5.006-5.129h30.008c2.712 0 4.921 2.164 4.992 4.875 2.593 99.214 84.108 179.125 183.936 179.125s181.343-79.911 183.936-179.125c.071-2.711 2.28-4.875 4.992-4.875h30.008c2.811 0 5.069 2.318 5.006 5.129-2.735 121.155-102.142 218.871-223.942 218.871z"/></g></svg>